<svg width="26" height="25" viewBox="0 0 26 25" fill="none" xmlns="http://www.w3.org/2000/svg">
<path d="M22.1037 25H4.4242C3.41944 25 2.45583 24.6049 1.74536 23.9017C1.03488 23.1984 0.635742 22.2446 0.635742 21.25V1.25C0.635742 0.918479 0.768789 0.600537 1.00561 0.366116C1.24244 0.131696 1.56364 0 1.89856 0H19.578C19.913 0 20.2342 0.131696 20.471 0.366116C20.7078 0.600537 20.8409 0.918479 20.8409 1.25V16.25H25.8922V21.25C25.8922 22.2446 25.493 23.1984 24.7825 23.9017C24.0721 24.6049 23.1085 25 22.1037 25ZM20.8409 18.75V21.25C20.8409 21.5815 20.9739 21.8995 21.2107 22.1339C21.4476 22.3683 21.7688 22.5 22.1037 22.5C22.4386 22.5 22.7598 22.3683 22.9966 22.1339C23.2335 21.8995 23.3665 21.5815 23.3665 21.25V18.75H20.8409ZM5.68702 6.25V8.75H15.7896V6.25H5.68702ZM5.68702 11.25V13.75H15.7896V11.25H5.68702ZM5.68702 16.25V18.75H12.0011V16.25H5.68702Z" fill="url(#paint0_linear_52_53)"/>
<defs>
<linearGradient id="paint0_linear_52_53" x1="13.2639" y1="0" x2="13.2639" y2="25" gradientUnits="userSpaceOnUse">
<stop stop-color="#96CAE7"/>
<stop offset="1" stop-color="#0C3048"/>
</linearGradient>
</defs>
</svg>
