<svg width="22" height="16" viewBox="0 0 22 16" fill="none" xmlns="http://www.w3.org/2000/svg">
<path d="M19.44 0H2.16C0.972 0 0.0108 0.9 0.0108 2L0 14C0 15.1 0.972 16 2.16 16H19.44C20.628 16 21.6 15.1 21.6 14V2C21.6 0.9 20.628 0 19.44 0ZM19.008 4.25L11.3724 8.67C11.0268 8.87 10.5732 8.87 10.2276 8.67L2.592 4.25C2.48371 4.19371 2.38887 4.11766 2.31324 4.02645C2.23761 3.93525 2.18275 3.83078 2.15198 3.71937C2.12122 3.60796 2.11518 3.49194 2.13425 3.37831C2.15332 3.26468 2.19708 3.15581 2.2629 3.0583C2.32873 2.96079 2.41523 2.87666 2.51718 2.811C2.61914 2.74533 2.73442 2.69951 2.85606 2.6763C2.97769 2.65309 3.10315 2.65297 3.22483 2.67595C3.34652 2.69893 3.4619 2.74453 3.564 2.81L10.8 7L18.036 2.81C18.1381 2.74453 18.2535 2.69893 18.3752 2.67595C18.4969 2.65297 18.6223 2.65309 18.7439 2.6763C18.8656 2.69951 18.9809 2.74533 19.0828 2.811C19.1848 2.87666 19.2713 2.96079 19.3371 3.0583C19.4029 3.15581 19.4467 3.26468 19.4658 3.37831C19.4848 3.49194 19.4788 3.60796 19.448 3.71937C19.4173 3.83078 19.3624 3.93525 19.2868 4.02645C19.2111 4.11766 19.1163 4.19371 19.008 4.25Z" fill="white"/>
</svg>
