<svg width="24" height="25" viewBox="0 0 24 25" fill="none" xmlns="http://www.w3.org/2000/svg">
<path d="M18.6734 25L17.962 24.4131C15.5905 22.1831 13.9304 20.7746 13.9304 19.0141C13.9304 17.6056 15.1162 16.4319 16.5391 16.4319C17.3691 16.4319 18.1991 16.784 18.6734 17.3709C19.1477 16.784 19.9777 16.4319 20.8078 16.4319C22.2307 16.4319 23.4164 17.4883 23.4164 19.0141C23.4164 20.7746 21.7564 22.1831 19.3849 24.4131L18.6734 25ZM3.2587 23.4742C2.62974 23.4742 2.02654 23.2269 1.5818 22.7866C1.13706 22.3464 0.887207 21.7493 0.887207 21.1268V2.34742C0.887207 1.0446 1.94252 0 3.2587 0H4.44445V8.21596L7.40882 6.4554L10.3732 8.21596V0H17.4877C18.1166 0 18.7198 0.247316 19.1646 0.687543C19.6093 1.12777 19.8592 1.72484 19.8592 2.34742V13.0047L18.6734 12.9108C17.4249 12.9118 16.1985 13.2377 15.1174 13.8559C14.0363 14.4741 13.1384 15.3628 12.5138 16.4329C11.8892 17.503 11.5598 18.7168 11.5587 19.9527C11.5576 21.1886 11.8848 22.403 12.5075 23.4742H3.2587Z" fill="url(#paint0_linear_52_52)"/>
<defs>
<linearGradient id="paint0_linear_52_52" x1="12.1518" y1="0" x2="12.1518" y2="25" gradientUnits="userSpaceOnUse">
<stop stop-color="#96CAE7"/>
<stop offset="1" stop-color="#0C3048"/>
</linearGradient>
</defs>
</svg>
