<svg width="18" height="21" viewBox="0 0 18 21" fill="none" xmlns="http://www.w3.org/2000/svg">
<path d="M8.79991 16C9.37278 16 9.92218 15.7893 10.3273 15.4142C10.7323 15.0391 10.9599 14.5304 10.9599 14C10.9599 13.4696 10.7323 12.9609 10.3273 12.5858C9.92218 12.2107 9.37278 12 8.79991 12C8.22704 12 7.67764 12.2107 7.27256 12.5858C6.86748 12.9609 6.63991 13.4696 6.63991 14C6.63991 14.5304 6.86748 15.0391 7.27256 15.4142C7.67764 15.7893 8.22704 16 8.79991 16ZM15.2799 7C15.8528 7 16.4022 7.21071 16.8073 7.58579C17.2123 7.96086 17.4399 8.46957 17.4399 9V19C17.4399 19.5304 17.2123 20.0391 16.8073 20.4142C16.4022 20.7893 15.8528 21 15.2799 21H2.31991C1.74704 21 1.19764 20.7893 0.792561 20.4142C0.387483 20.0391 0.159912 19.5304 0.159912 19V9C0.159912 8.46957 0.387483 7.96086 0.792561 7.58579C1.19764 7.21071 1.74704 7 2.31991 7H3.39991V5C3.39991 3.67392 3.96884 2.40215 4.98154 1.46447C5.99423 0.526784 7.36774 0 8.79991 0C9.50905 0 10.2112 0.129329 10.8664 0.380602C11.5216 0.631876 12.1169 1.00017 12.6183 1.46447C13.1197 1.92876 13.5175 2.47995 13.7889 3.08658C14.0602 3.69321 14.1999 4.34339 14.1999 5V7H15.2799ZM8.79991 2C7.94061 2 7.1165 2.31607 6.50889 2.87868C5.90127 3.44129 5.55991 4.20435 5.55991 5V7H12.0399V5C12.0399 4.20435 11.6986 3.44129 11.0909 2.87868C10.4833 2.31607 9.65921 2 8.79991 2Z" fill="white"/>
</svg>
