<svg width="26" height="25" viewBox="0 0 26 25" fill="none" xmlns="http://www.w3.org/2000/svg">
<path d="M11.0605 10.0267C11.5866 10.0267 12.034 9.84456 12.4026 9.48021C12.7713 9.11586 12.9553 8.67415 12.9544 8.15508C12.9544 7.63517 12.7701 7.19305 12.4014 6.8287C12.0327 6.46435 11.5857 6.28259 11.0605 6.28342C10.5344 6.28342 10.087 6.4656 9.7183 6.82995C9.34961 7.1943 9.16569 7.63601 9.16653 8.15508C9.16653 8.67498 9.35087 9.11711 9.71956 9.48146C10.0882 9.84581 10.5352 10.0276 11.0605 10.0267ZM8.53521 16.2656C9.06131 16.2656 9.5087 16.0834 9.87739 15.7191C10.2461 15.3547 10.43 14.913 10.4292 14.3939C10.4292 13.874 10.2448 13.4319 9.87613 13.0676C9.50744 12.7032 9.06047 12.5214 8.53521 12.5223C8.00912 12.5223 7.56173 12.7045 7.19304 13.0688C6.82435 13.4332 6.64043 13.8749 6.64127 14.3939C6.64127 14.9138 6.82561 15.356 7.1943 15.7203C7.56299 16.0847 8.00996 16.2664 8.53521 16.2656ZM16.7423 17.5134C17.1 17.5134 17.4001 17.3936 17.6426 17.154C17.885 16.9144 18.0058 16.6183 18.0049 16.2656C18.0049 15.9121 17.8837 15.6155 17.6413 15.3759C17.3989 15.1364 17.0992 15.017 16.7423 15.0178C16.3846 15.0178 16.0845 15.1376 15.842 15.3772C15.5996 15.6168 15.4788 15.9129 15.4797 16.2656C15.4797 16.6191 15.6009 16.9157 15.8433 17.1553C16.0857 17.3948 16.3854 17.5142 16.7423 17.5134ZM12.9544 25C11.2078 25 9.56636 24.6723 8.03016 24.0168C6.49396 23.3613 5.15768 22.4724 4.02132 21.3503C2.88495 20.2273 1.98554 18.9067 1.32308 17.3886C0.660617 15.8705 0.328967 14.2484 0.328125 12.5223C0.328125 10.8378 0.68082 9.19988 1.38621 7.60856C2.0916 6.01723 3.06971 4.61889 4.32056 3.41355C5.57309 2.20737 7.06215 1.29234 8.78774 0.668449C10.5133 0.0445633 12.4073 -0.142602 14.4696 0.106952C14.7852 0.148544 15.0272 0.278728 15.1956 0.497504C15.3639 0.71628 15.4586 1.01242 15.4797 1.38592C15.5218 2.71687 16.0218 3.85526 16.9797 4.80107C17.9376 5.74688 19.079 6.241 20.4039 6.28342C20.8458 6.30422 21.1826 6.429 21.414 6.65775C21.6455 6.88651 21.7718 7.24005 21.7928 7.71836C21.8349 8.5918 22.1034 9.30927 22.5984 9.87077C23.0933 10.4323 23.7823 10.8586 24.6653 11.1497C24.9599 11.2537 25.1863 11.4047 25.3446 11.6027C25.5028 11.8007 25.5816 12.0448 25.5807 12.3351C25.6228 14.0612 25.3177 15.6937 24.6653 17.2326C24.0129 18.7715 23.1186 20.1183 21.9822 21.2729C20.8458 22.4267 19.499 23.3363 17.9418 24.0018C16.3846 24.6673 14.7221 25 12.9544 25Z" fill="white"/>
</svg>
