<svg width="26" height="17" viewBox="0 0 26 17" fill="none" xmlns="http://www.w3.org/2000/svg">
<path fill-rule="evenodd" clip-rule="evenodd" d="M10.6165 0.758374C10.6168 0.600355 10.5401 0.446247 10.3972 0.317614C10.2543 0.188982 10.0524 0.0922623 9.81973 0.0409917C9.58705 -0.0102789 9.33523 -0.0135352 9.09953 0.0316785C8.86382 0.0768923 8.65602 0.168313 8.5052 0.293148L0.248519 7.11242C0.0874493 7.24543 0 7.40913 0 7.57764C0 7.74616 0.0874493 7.90986 0.248519 8.04287L8.5052 14.8621C8.65602 14.987 8.86382 15.0784 9.09953 15.1236C9.33523 15.1688 9.58705 15.1656 9.81973 15.1143C10.0524 15.063 10.2543 14.9663 10.3972 14.8377C10.5401 14.709 10.6168 14.5549 10.6165 14.3969V11.3737C16.9612 11.4586 20.0091 12.2322 21.5401 13.0732C22.9957 13.8726 23.2622 14.8129 23.5394 15.7979L23.6114 16.0517C23.6643 16.2334 23.8187 16.3963 24.0456 16.5099C24.2725 16.6235 24.5562 16.6799 24.8433 16.6686C25.1304 16.6572 25.4011 16.5788 25.6046 16.4482C25.808 16.3176 25.9302 16.1437 25.948 15.9593C26.1497 13.8771 25.8466 10.86 23.5571 8.3361C21.3349 5.88647 17.3328 4.00283 10.6165 3.80583V0.758374Z" fill="white"/>
</svg>
