<svg width="26" height="25" viewBox="0 0 26 25" fill="none" xmlns="http://www.w3.org/2000/svg">
<path d="M25.6719 7.38636V21.3068C25.6719 22.2863 25.2788 23.2257 24.5791 23.9183C23.8794 24.6109 22.9304 25 21.9409 25H4.14659C3.15705 25 2.20804 24.6109 1.50833 23.9183C0.80862 23.2257 0.415527 22.2863 0.415527 21.3068V7.38636H25.6719ZM7.0063 16.4784C6.62571 16.4784 6.26071 16.6281 5.99159 16.8945C5.72247 17.1608 5.57128 17.5221 5.57128 17.8989C5.57128 18.2756 5.72247 18.6369 5.99159 18.9033C6.26071 19.1697 6.62571 19.3193 7.0063 19.3193C7.38689 19.3193 7.7519 19.1697 8.02102 18.9033C8.29014 18.6369 8.44133 18.2756 8.44133 17.8989C8.44133 17.5221 8.29014 17.1608 8.02102 16.8945C7.7519 16.6281 7.38689 16.4784 7.0063 16.4784ZM13.0391 16.4784C12.6585 16.4784 12.2935 16.6281 12.0244 16.8945C11.7553 17.1608 11.6041 17.5221 11.6041 17.8989C11.6041 18.2756 11.7553 18.6369 12.0244 18.9033C12.2935 19.1697 12.6585 19.3193 13.0391 19.3193C13.4197 19.3193 13.7847 19.1697 14.0539 18.9033C14.323 18.6369 14.4742 18.2756 14.4742 17.8989C14.4742 17.5221 14.323 17.1608 14.0539 16.8945C13.7847 16.6281 13.4197 16.4784 13.0391 16.4784ZM7.0063 10.7966C6.62571 10.7966 6.26071 10.9462 5.99159 11.2126C5.72247 11.479 5.57128 11.8403 5.57128 12.217C5.57128 12.5938 5.72247 12.9551 5.99159 13.2215C6.26071 13.4878 6.62571 13.6375 7.0063 13.6375C7.38689 13.6375 7.7519 13.4878 8.02102 13.2215C8.29014 12.9551 8.44133 12.5938 8.44133 12.217C8.44133 11.8403 8.29014 11.479 8.02102 11.2126C7.7519 10.9462 7.38689 10.7966 7.0063 10.7966ZM13.0391 10.7966C12.6585 10.7966 12.2935 10.9462 12.0244 11.2126C11.7553 11.479 11.6041 11.8403 11.6041 12.217C11.6041 12.5938 11.7553 12.9551 12.0244 13.2215C12.2935 13.4878 12.6585 13.6375 13.0391 13.6375C13.4197 13.6375 13.7847 13.4878 14.0539 13.2215C14.323 12.9551 14.4742 12.5938 14.4742 12.217C14.4742 11.8403 14.323 11.479 14.0539 11.2126C13.7847 10.9462 13.4197 10.7966 13.0391 10.7966ZM19.0708 10.7966C18.6902 10.7966 18.3252 10.9462 18.0561 11.2126C17.787 11.479 17.6358 11.8403 17.6358 12.217C17.6358 12.5938 17.787 12.9551 18.0561 13.2215C18.3252 13.4878 18.6902 13.6375 19.0708 13.6375C19.4514 13.6375 19.8164 13.4878 20.0855 13.2215C20.3547 12.9551 20.5059 12.5938 20.5059 12.217C20.5059 11.8403 20.3547 11.479 20.0855 11.2126C19.8164 10.9462 19.4514 10.7966 19.0708 10.7966ZM21.9409 0C22.9304 0 23.8794 0.389102 24.5791 1.08171C25.2788 1.77431 25.6719 2.71369 25.6719 3.69318V5.68182H0.415527V3.69318C0.415527 2.71369 0.80862 1.77431 1.50833 1.08171C2.20804 0.389102 3.15705 0 4.14659 0H21.9409Z" fill="url(#paint0_linear_52_54)"/>
<defs>
<linearGradient id="paint0_linear_52_54" x1="13.0437" y1="0" x2="13.0437" y2="25" gradientUnits="userSpaceOnUse">
<stop stop-color="#96CAE7"/>
<stop offset="1" stop-color="#0C3048"/>
</linearGradient>
</defs>
</svg>
