<svg width="188" height="140" viewBox="0 0 188 140" fill="none" xmlns="http://www.w3.org/2000/svg">
<path d="M76.3025 3.73255V18.6627C76.3025 19.6527 76.6973 20.602 77.4001 21.302C78.1029 22.002 79.0561 22.3953 80.05 22.3953C81.0439 22.3953 81.997 22.002 82.6998 21.302C83.4026 20.602 83.7974 19.6527 83.7974 18.6627V3.73255C83.7974 2.74261 83.4026 1.79323 82.6998 1.09324C81.997 0.393249 81.0439 0 80.05 0C79.0561 0 78.1029 0.393249 77.4001 1.09324C76.6973 1.79323 76.3025 2.74261 76.3025 3.73255Z" fill="currentColor"/>
<path d="M97.6897 21.302C96.9869 22.002 96.0337 22.3953 95.0398 22.3953C94.0459 22.3953 93.0927 22.002 92.39 21.302C91.6872 20.602 91.2924 19.6527 91.2924 18.6627V3.73255C91.2924 2.74261 91.6872 1.79323 92.39 1.09324C93.0927 0.393249 94.0459 0 95.0398 0C96.0337 0 96.9869 0.393249 97.6897 1.09324C98.3925 1.79323 98.7873 2.74261 98.7873 3.73255V18.6627C98.7873 19.6527 98.3925 20.602 97.6897 21.302Z" fill="currentColor"/>
<path d="M112.68 21.302C111.977 22.002 111.024 22.3953 110.03 22.3953C109.036 22.3953 108.083 22.002 107.38 21.302C106.677 20.602 106.282 19.6527 106.282 18.6627V3.73255C106.282 2.74261 106.677 1.79323 107.38 1.09324C108.083 0.393249 109.036 0 110.03 0C111.024 0 111.977 0.393249 112.68 1.09324C113.382 1.79323 113.777 2.74261 113.777 3.73255V18.6627C113.777 19.6527 113.382 20.602 112.68 21.302Z" fill="currentColor"/>
<path d="M94.5062 56.5817C93.7088 57.3756 92.7412 57.7725 91.6033 57.7725C90.4673 57.7743 89.5006 57.3783 88.7032 56.5844C87.9058 55.7905 87.5071 54.8271 87.5071 53.6942C87.5052 52.5631 87.903 51.6006 88.7004 50.8067C89.4978 50.0128 90.4655 49.6159 91.6033 49.6159C92.7393 49.614 93.7061 50.0101 94.5035 50.804C95.3009 51.5979 95.6996 52.5613 95.6996 53.6942C95.7014 54.8252 95.3036 55.7877 94.5062 56.5817Z" fill="currentColor"/>
<path d="M89.0445 70.1761C88.2471 70.97 87.2795 71.367 86.1416 71.367C85.0056 71.3688 84.0389 70.9727 83.2415 70.1788C82.4441 69.3849 82.0454 68.4215 82.0454 67.2886C82.0436 66.1576 82.4414 65.1951 83.2388 64.4012C84.0362 63.6073 85.0038 63.2103 86.1416 63.2103C87.2777 63.2085 88.2444 63.6045 89.0418 64.3985C89.8392 65.1924 90.2379 66.1558 90.2379 67.2886C90.2397 68.4197 89.8419 69.3822 89.0445 70.1761Z" fill="currentColor"/>
<path d="M105.839 73.3028C105.315 73.8248 104.666 74.0859 103.892 74.0859C103.12 74.0877 102.472 73.8276 101.948 73.3055C101.423 72.7835 101.161 72.1373 101.161 71.367C101.159 70.5984 101.421 69.9531 101.945 69.4311C102.469 68.9091 103.118 68.6481 103.892 68.6481C104.664 68.6463 105.312 68.9064 105.836 69.4284C106.361 69.9504 106.623 70.5966 106.623 71.367C106.625 72.1355 106.363 72.7808 105.839 73.3028Z" fill="currentColor"/>
<path fill-rule="evenodd" clip-rule="evenodd" d="M151.782 37.363C152.766 37.503 153.653 38.0265 154.25 38.8185C154.545 39.2106 154.76 39.6568 154.882 40.1317C155.004 40.6065 155.031 41.1006 154.962 41.5859C154.892 42.0711 154.727 42.5379 154.476 42.9597C154.226 43.3815 153.894 43.7499 153.5 44.044L140.009 54.1219V82.116C140.009 86.0757 138.43 89.8733 135.619 92.6732C132.808 95.4732 128.995 97.0462 125.02 97.0462H65.0601C61.0846 97.0462 57.2718 95.4732 54.4607 92.6732C51.6495 89.8733 50.0703 86.0757 50.0703 82.116V54.1219L36.5794 44.044C35.7843 43.4501 35.2586 42.5658 35.1181 41.5859C34.9775 40.6059 35.2336 39.6104 35.8299 38.8185C36.4262 38.0265 37.314 37.503 38.2979 37.363C39.2818 37.223 40.2812 37.478 41.0764 38.072L50.0703 44.7905V37.3255C50.0703 35.3456 50.8599 33.4468 52.2655 32.0468C53.6711 30.6469 55.5774 29.8604 57.5652 29.8604H132.514C134.502 29.8604 136.409 30.6469 137.814 32.0468C139.22 33.4468 140.009 35.3456 140.009 37.3255V44.7905L149.003 38.072C149.798 37.478 150.798 37.223 151.782 37.363ZM85.0493 88.2567C88.3718 89.685 91.9219 90.3992 95.6996 90.3992C99.7485 90.401 103.514 89.5971 106.997 87.9875C110.48 86.3779 113.461 84.2137 115.941 81.4948C118.422 78.7759 120.3 75.6039 121.574 71.9787C122.849 68.3535 123.281 64.5244 122.871 60.4914C120.412 60.4008 118.226 59.2453 116.315 57.0248C114.403 54.8044 114.153 52.1308 115.564 49.0041C113.516 49.6838 111.558 49.7971 109.692 49.344C107.826 48.8908 106.211 48.0525 104.845 46.829C103.48 45.6073 102.456 44.101 101.773 42.3102C101.09 40.5194 100.954 38.6044 101.363 36.5652C96.5825 35.5683 92.1786 35.6816 88.1515 36.9051C84.1245 38.1286 80.6445 40.0544 77.7115 42.6827C74.775 45.311 72.4874 48.4377 70.8489 52.0629C69.2104 55.688 68.3912 59.4039 68.3912 63.2103C68.393 66.9714 69.1103 70.506 70.5431 73.814C71.9759 77.1219 73.9211 79.9994 76.3789 82.4464C78.8366 84.8916 81.7268 86.8284 85.0493 88.2567Z" fill="currentColor"/>
<path d="M0 115.416H8.18574L13.8164 129.107H14.1003L19.731 115.416H27.9167V139.587H21.4817V125.613H21.2924L15.8983 139.398H12.0184L6.6243 125.519H6.43503V139.587H0V115.416Z" fill="currentColor"/>
<path d="M30.04 115.416H37.3741L42.1057 125.235H42.295L47.0266 115.416H54.3607L45.4652 131.986V139.587H38.9355V131.986L30.04 115.416Z" fill="currentColor"/>
<path d="M58.1608 139.587V115.416H65.9798C67.699 115.416 69.1342 115.727 70.2856 116.348C71.4448 116.962 72.3163 117.816 72.8998 118.909C73.4913 119.995 73.787 121.242 73.787 122.651C73.787 124.059 73.4913 125.302 72.8998 126.38C72.3163 127.458 71.4488 128.3 70.2974 128.906C69.1461 129.512 67.7187 129.815 66.0153 129.815H59.3555V127.797H65.9561C67.2179 127.797 68.2668 127.588 69.1027 127.171C69.9465 126.754 70.5734 126.16 70.9835 125.389C71.4015 124.618 71.6105 123.705 71.6105 122.651C71.6105 121.596 71.4015 120.676 70.9835 119.889C70.5656 119.094 69.9347 118.481 69.0909 118.048C68.2549 117.615 67.1982 117.399 65.9207 117.399H60.3728V139.587H58.1608ZM68.8424 128.682L74.8043 139.587H72.2492L66.3465 128.682H68.8424Z" fill="currentColor"/>
<path d="M79.1752 139.587V115.416H93.2282V117.399H81.3872V126.498H92.4829V128.481H81.3872V137.604H93.4647V139.587H79.1752Z" fill="currentColor"/>
<path d="M117.927 122.969H115.703C115.538 122.143 115.238 121.38 114.804 120.68C114.379 119.972 113.842 119.354 113.196 118.827C112.549 118.3 111.816 117.891 110.995 117.599C110.175 117.308 109.288 117.163 108.334 117.163C106.804 117.163 105.408 117.56 104.146 118.355C102.893 119.149 101.887 120.318 101.13 121.86C100.381 123.394 100.006 125.275 100.006 127.501C100.006 129.744 100.381 131.632 101.13 133.167C101.887 134.701 102.893 135.865 104.146 136.66C105.408 137.447 106.804 137.84 108.334 137.84C109.288 137.84 110.175 137.695 110.995 137.404C111.816 137.112 112.549 136.707 113.196 136.188C113.842 135.661 114.379 135.043 114.804 134.335C115.238 133.627 115.538 132.86 115.703 132.034H117.927C117.73 133.143 117.36 134.178 116.815 135.137C116.279 136.09 115.593 136.924 114.757 137.64C113.929 138.356 112.975 138.914 111.894 139.315C110.814 139.717 109.627 139.917 108.334 139.917C106.299 139.917 104.493 139.41 102.916 138.395C101.339 137.372 100.101 135.932 99.2019 134.075C98.3107 132.218 97.8652 130.027 97.8652 127.501C97.8652 124.976 98.3107 122.785 99.2019 120.928C100.101 119.071 101.339 117.635 102.916 116.62C104.493 115.597 106.299 115.086 108.334 115.086C109.627 115.086 110.814 115.286 111.894 115.687C112.975 116.081 113.929 116.64 114.757 117.363C115.593 118.079 116.279 118.913 116.815 119.865C117.36 120.817 117.73 121.852 117.927 122.969Z" fill="currentColor"/>
<path d="M125.335 115.416V139.587H123.123V115.416H125.335Z" fill="currentColor"/>
<path d="M131.776 139.587V115.416H139.595C141.314 115.416 142.75 115.746 143.901 116.407C145.06 117.06 145.932 117.95 146.515 119.075C147.107 120.2 147.403 121.467 147.403 122.875C147.403 124.283 147.111 125.554 146.527 126.687C145.944 127.812 145.076 128.705 143.925 129.366C142.773 130.019 141.342 130.346 139.631 130.346H133.48V128.363H139.572C140.841 128.363 141.894 128.127 142.73 127.655C143.566 127.175 144.189 126.522 144.599 125.696C145.017 124.87 145.226 123.929 145.226 122.875C145.226 121.821 145.017 120.88 144.599 120.054C144.189 119.228 143.562 118.579 142.718 118.107C141.882 117.635 140.822 117.399 139.536 117.399H133.988V139.587H131.776Z" fill="currentColor"/>
<path d="M152.595 139.587V115.416H166.648V117.399H154.808V126.498H165.903V128.481H154.808V137.604H166.885V139.587H152.595Z" fill="currentColor"/>
<path d="M185.528 121.459C185.394 120.113 184.798 119.043 183.742 118.249C182.685 117.454 181.356 117.057 179.755 117.057C178.627 117.057 177.634 117.249 176.774 117.635C175.922 118.02 175.252 118.555 174.763 119.24C174.282 119.917 174.042 120.688 174.042 121.553C174.042 122.19 174.18 122.749 174.456 123.229C174.732 123.709 175.102 124.122 175.568 124.468C176.041 124.807 176.561 125.098 177.129 125.342C177.705 125.586 178.284 125.79 178.868 125.955L181.423 126.687C182.196 126.9 182.969 127.171 183.742 127.501C184.514 127.832 185.22 128.249 185.859 128.753C186.506 129.248 187.022 129.858 187.409 130.582C187.803 131.298 188 132.159 188 133.167C188 134.457 187.665 135.617 186.995 136.648C186.324 137.679 185.362 138.497 184.108 139.103C182.854 139.701 181.352 140 179.601 140C177.953 140 176.522 139.729 175.307 139.186C174.093 138.635 173.139 137.876 172.445 136.908C171.751 135.94 171.36 134.819 171.274 133.544H173.545C173.624 134.496 173.939 135.303 174.491 135.964C175.043 136.625 175.761 137.128 176.644 137.474C177.527 137.813 178.513 137.982 179.601 137.982C180.808 137.982 181.88 137.781 182.819 137.38C183.765 136.971 184.506 136.404 185.043 135.68C185.587 134.949 185.859 134.099 185.859 133.131C185.859 132.313 185.646 131.628 185.22 131.078C184.794 130.519 184.199 130.051 183.434 129.673C182.677 129.295 181.798 128.961 180.796 128.67L177.898 127.82C175.997 127.254 174.523 126.471 173.474 125.471C172.425 124.472 171.901 123.198 171.901 121.648C171.901 120.349 172.248 119.208 172.942 118.225C173.643 117.234 174.59 116.462 175.781 115.912C176.979 115.353 178.324 115.074 179.814 115.074C181.32 115.074 182.653 115.349 183.812 115.9C184.972 116.451 185.89 117.21 186.569 118.178C187.255 119.138 187.621 120.231 187.669 121.459H185.528Z" fill="currentColor"/>
</svg>
